{
  "accessors": [
    {
      "bufferView": 2,
      "componentType": 5126,
      "count": 27648,
      "max": [
        5.838197231292725,
        6.079782009124756,
        9.794066429138184
      ],
      "min": [
        -5.708831787109375,
        -6.326328754425049,
        0.0015905553009361029
      ],
      "type": "VEC3"
    },
    {
      "bufferView": 2,
      "byteOffset": 331776,
      "componentType": 5126,
      "count": 27648,
      "max": [
        1.0,
        1.0,
        1.0
      ],
      "min": [
        -1.0,
        -1.0,
        -1.0
      ],
      "type": "VEC3"
    },
    {
      "bufferView": 1,
      "componentType": 5126,
      "count": 27648,
      "max": [
        1.0,
        0.9939588904380798
      ],
      "min": [
        -1.7867651802561113e-16,
        -3.5735303605122226e-16
      ],
      "type": "VEC2"
    },
    {
      "bufferView": 0,
      "componentType": 5125,
      "count": 72576,
      "type": "SCALAR"
    },
    {
      "bufferView": 2,
      "byteOffset": 663552,
      "componentType": 5126,
      "count": 20175,
      "max": [
        5.0,
        5.0,
        1.0
      ],
      "min": [
        -5.0,
        -5.0,
        0.0
      ],
      "type": "VEC3"
    },
    {
      "bufferView": 2,
      "byteOffset": 905652,
      "componentType": 5126,
      "count": 20175,
      "max": [
        0.8860604166984558,
        0.8254661560058594,
        1.0
      ],
      "min": [
        -0.9087632894515991,
        -0.9145115613937378,
        -1.0
      ],
      "type": "VEC3"
    },
    {
      "bufferView": 3,
      "componentType": 5126,
      "count": 20175,
      "max": [
        1.0,
        0.11700758337974548,
        0.9163561463356018,
        1.0
      ],
      "min": [
        -1.0,
        -0.15075117349624634,
        -0.9381237030029297,
        1.0
      ],
      "type": "VEC4"
    },
    {
      "bufferView": 1,
      "byteOffset": 221184,
      "componentType": 5126,
      "count": 20175,
      "max": [
        1.0,
        0.5000119805335999
      ],
      "min": [
        0.0,
        0.0
      ],
      "type": "VEC2"
    },
    {
      "bufferView": 0,
      "byteOffset": 290304,
      "componentType": 5125,
      "count": 119292,
      "type": "SCALAR"
    },
    {
      "bufferView": 2,
      "byteOffset": 1147752,
      "componentType": 5126,
      "count": 576,
      "max": [
        5.0,
        5.0,
        0.772549033164978
      ],
      "min": [
        -5.0,
        -5.0,
        0.0
      ],
      "type": "VEC3"
    },
    {
      "bufferView": 2,
      "byteOffset": 1154664,
      "componentType": 5126,
      "count": 576,
      "max": [
        1.0,
        1.0,
        3.9918068850397503e-13
      ],
      "min": [
        -1.0,
        -1.0,
        -1.33060229501325e-13
      ],
      "type": "VEC3"
    },
    {
      "bufferView": 3,
      "byteOffset": 322800,
      "componentType": 5126,
      "count": 576,
      "max": [
        1.0,
        1.0,
        0.04995979741215706,
        1.0
      ],
      "min": [
        -1.0,
        -1.0,
        -0.04997396841645241,
        1.0
      ],
      "type": "VEC4"
    },
    {
      "bufferView": 1,
      "byteOffset": 382584,
      "componentType": 5126,
      "count": 576,
      "max": [
        0.9999971985816956,
        0.5737372636795044
      ],
      "min": [
        0.0,
        0.5000119805335999
      ],
      "type": "VEC2"
    },
    {
      "bufferView": 0,
      "byteOffset": 767472,
      "componentType": 5125,
      "count": 1704,
      "type": "SCALAR"
    }
  ],
  "asset": {
    "extras": {
      "author": "Canary Games (https://sketchfab.com/CapAlatriste)",
      "license": "CC-BY-4.0 (http://creativecommons.org/licenses/by/4.0/)",
      "source": "https://sketchfab.com/3d-models/11-snow-inktober2019-a3c0d362e662463f8a6722fabfc23f19",
      "title": "#11 Snow \"Inktober2019\""
    },
    "generator": "Sketchfab-12.68.0",
    "version": "2.0"
  },
  "bufferViews": [
    {
      "buffer": 0,
      "byteLength": 774288,
      "name": "floatBufferViews",
      "target": 34963
    },
    {
      "buffer": 0,
      "byteLength": 387192,
      "byteOffset": 774288,
      "byteStride": 8,
      "name": "floatBufferViews",
      "target": 34962
    },
    {
      "buffer": 0,
      "byteLength": 1161576,
      "byteOffset": 1161480,
      "byteStride": 12,
      "name": "floatBufferViews",
      "target": 34962
    },
    {
      "buffer": 0,
      "byteLength": 332016,
      "byteOffset": 2323056,
      "byteStride": 16,
      "name": "floatBufferViews",
      "target": 34962
    }
  ],
  "buffers": [
    {
      "byteLength": 2655072,
      "uri": "scene.bin"
    }
  ],
  "images": [
    {
      "uri": "textures/Snow_Inktober2019_baseColor.png"
    },
    {
      "uri": "textures/Snow_Inktober2019_metallicRoughness.png"
    },
    {
      "uri": "textures/Snow_Inktober2019_normal.png"
    },
    {
      "uri": "textures/Snow_dust_emissive.png"
    }
  ],
  "materials": [
    {
      "name": "Snow_Inktober2019",
      "normalTexture": {
        "index": 2
      },
      "occlusionTexture": {
        "index": 1
      },
      "pbrMetallicRoughness": {
        "baseColorTexture": {
          "index": 0
        },
        "metallicRoughnessTexture": {
          "index": 1
        }
      }
    },
    {
      "doubleSided": true,
      "emissiveFactor": [
        1.0,
        1.0,
        1.0
      ],
      "emissiveTexture": {
        "index": 3
      },
      "name": "Snow_dust",
      "pbrMetallicRoughness": {
        "metallicFactor": 0.0
      }
    }
  ],
  "meshes": [
    {
      "name": "Object_0",
      "primitives": [
        {
          "attributes": {
            "NORMAL": 1,
            "POSITION": 0,
            "TEXCOORD_0": 2
          },
          "indices": 3,
          "material": 1,
          "mode": 4
        }
      ]
    },
    {
      "name": "Object_1",
      "primitives": [
        {
          "attributes": {
            "NORMAL": 5,
            "POSITION": 4,
            "TANGENT": 6,
            "TEXCOORD_0": 7
          },
          "indices": 8,
          "material": 0,
          "mode": 4
        }
      ]
    },
    {
      "name": "Object_2",
      "primitives": [
        {
          "attributes": {
            "NORMAL": 10,
            "POSITION": 9,
            "TANGENT": 11,
            "TEXCOORD_0": 12
          },
          "indices": 13,
          "material": 0,
          "mode": 4
        }
      ]
    }
  ],
  "nodes": [
    {
      "children": [
        1
      ],
      "matrix": [
        1.0,
        0.0,
        0.0,
        0.0,
        0.0,
        2.220446049250313e-16,
        -1.0,
        0.0,
        0.0,
        1.0,
        2.220446049250313e-16,
        0.0,
        0.0,
        0.0,
        0.0,
        1.0
      ],
      "name": "Sketchfab_model"
    },
    {
      "children": [
        2,
        3,
        4
      ],
      "name": "Snow Inktober2019.obj.cleaner.materialmerger.gles"
    },
    {
      "mesh": 0,
      "name": "Object_2"
    },
    {
      "mesh": 1,
      "name": "Object_3"
    },
    {
      "mesh": 2,
      "name": "Object_4"
    }
  ],
  "samplers": [
    {
      "magFilter": 9729,
      "minFilter": 9987,
      "wrapS": 10497,
      "wrapT": 10497
    }
  ],
  "scene": 0,
  "scenes": [
    {
      "name": "Sketchfab_Scene",
      "nodes": [
        0
      ]
    }
  ],
  "textures": [
    {
      "sampler": 0,
      "source": 0
    },
    {
      "sampler": 0,
      "source": 1
    },
    {
      "sampler": 0,
      "source": 2
    },
    {
      "sampler": 0,
      "source": 3
    }
  ]
}
