{
	"asset":{
		"generator":"Khronos glTF Blender I/O v4.0.44",
		"version":"2.0"
	},
	"extensionsUsed":[
		"KHR_materials_specular",
		"KHR_materials_ior"
	],
	"scene":0,
	"scenes":[
		{
			"name":"Scene",
			"nodes":[
				0
			]
		}
	],
	"nodes":[
		{
			"mesh":0,
			"name":"Cylinder.021",
			"rotation":[
				0,
				-0.08559554070234299,
				0,
				0.9963300228118896
			],
			"translation":[
				0,
				-26.553424835205078,
				0
			]
		}
	],
	"materials":[
		{
			"doubleSided":true,
			"extensions":{
				"KHR_materials_specular":{
					"specularColorFactor":[
						1.109375,
						1.109375,
						1.109375
					]
				},
				"KHR_materials_ior":{
					"ior":1.4500000476837158
				}
			},
			"name":"Stool.001",
			"pbrMetallicRoughness":{
				"baseColorFactor":[
					0.006785137578845024,
					0.3212066888809204,
					0,
					1
				],
				"metallicFactor":0,
				"roughnessFactor":0.5
			}
		},
		{
			"doubleSided":true,
			"name":"Stool",
			"pbrMetallicRoughness":{
				"baseColorFactor":[
					0.9174546599388123,
					0.00674884207546711,
					0,
					1
				],
				"metallicFactor":0,
				"roughnessFactor":0.5
			}
		}
	],
	"meshes":[
		{
			"name":"Cylinder.021",
			"primitives":[
				{
					"attributes":{
						"POSITION":0,
						"NORMAL":1,
						"TEXCOORD_0":2
					},
					"indices":3,
					"material":0
				},
				{
					"attributes":{
						"POSITION":4,
						"NORMAL":5,
						"TEXCOORD_0":6
					},
					"indices":7,
					"material":1
				}
			]
		}
	],
	"accessors":[
		{
			"bufferView":0,
			"componentType":5126,
			"count":64680,
			"max":[
				1.8591233491897583,
				6.291128158569336,
				1.8923883438110352
			],
			"min":[
				-1.8795440196990967,
				-0.3684006631374359,
				-1.8957226276397705
			],
			"type":"VEC3"
		},
		{
			"bufferView":1,
			"componentType":5126,
			"count":64680,
			"type":"VEC3"
		},
		{
			"bufferView":2,
			"componentType":5126,
			"count":64680,
			"type":"VEC2"
		},
		{
			"bufferView":3,
			"componentType":5123,
			"count":219912,
			"type":"SCALAR"
		},
		{
			"bufferView":4,
			"componentType":5126,
			"count":20580,
			"max":[
				1.7458627223968506,
				6.577202796936035,
				1.9186949729919434
			],
			"min":[
				-1.836258888244629,
				-0.3684006631374359,
				-1.747527003288269
			],
			"type":"VEC3"
		},
		{
			"bufferView":5,
			"componentType":5126,
			"count":20580,
			"type":"VEC3"
		},
		{
			"bufferView":6,
			"componentType":5126,
			"count":20580,
			"type":"VEC2"
		},
		{
			"bufferView":7,
			"componentType":5123,
			"count":69972,
			"type":"SCALAR"
		}
	],
	"bufferViews":[
		{
			"buffer":0,
			"byteLength":776160,
			"byteOffset":0,
			"target":34962
		},
		{
			"buffer":0,
			"byteLength":776160,
			"byteOffset":776160,
			"target":34962
		},
		{
			"buffer":0,
			"byteLength":517440,
			"byteOffset":1552320,
			"target":34962
		},
		{
			"buffer":0,
			"byteLength":439824,
			"byteOffset":2069760,
			"target":34963
		},
		{
			"buffer":0,
			"byteLength":246960,
			"byteOffset":2509584,
			"target":34962
		},
		{
			"buffer":0,
			"byteLength":246960,
			"byteOffset":2756544,
			"target":34962
		},
		{
			"buffer":0,
			"byteLength":164640,
			"byteOffset":3003504,
			"target":34962
		},
		{
			"buffer":0,
			"byteLength":139944,
			"byteOffset":3168144,
			"target":34963
		}
	],
	"buffers":[
		{
			"byteLength":3308088,
			"uri":"XmasTree.bin"
		}
	]
}
