{
	"asset":{
		"generator":"Khronos glTF Blender I/O v4.0.44",
		"version":"2.0"
	},
	"extensionsUsed":[
		"KHR_materials_specular",
		"KHR_materials_ior"
	],
	"scene":0,
	"scenes":[
		{
			"name":"Scene",
			"nodes":[
				0
			]
		}
	],
	"nodes":[
		{
			"mesh":0,
			"name":"Cylinder.021"
		}
	],
	"materials":[
		{
			"doubleSided":true,
			"extensions":{
				"KHR_materials_specular":{
					"specularColorFactor":[
						1.109375,
						1.109375,
						1.109375
					]
				},
				"KHR_materials_ior":{
					"ior":1.4500000476837158
				}
			},
			"name":"Stool.001",
			"pbrMetallicRoughness":{
				"baseColorFactor":[
					0.006785137578845024,
					0.3212066888809204,
					0,
					1
				],
				"metallicFactor":0,
				"roughnessFactor":0.5
			}
		},
		{
			"doubleSided":true,
			"name":"Stool",
			"pbrMetallicRoughness":{
				"baseColorFactor":[
					0.9174546599388123,
					0.00674884207546711,
					0,
					1
				],
				"metallicFactor":0,
				"roughnessFactor":0.5
			}
		}
	],
	"meshes":[
		{
			"name":"Cylinder.021",
			"primitives":[
				{
					"attributes":{
						"POSITION":0,
						"NORMAL":1,
						"TEXCOORD_0":2
					},
					"indices":3,
					"material":0
				},
				{
					"attributes":{
						"POSITION":4,
						"NORMAL":5,
						"TEXCOORD_0":6
					},
					"indices":7,
					"material":1
				}
			]
		}
	],
	"accessors":[
		{
			"bufferView":0,
			"componentType":5126,
			"count":64680,
			"max":[
				0.8356956839561462,
				2.7253258228302,
				0.8191447854042053
			],
			"min":[
				-0.7957468032836914,
				-0.1595916897058487,
				-0.8206107020378113
			],
			"type":"VEC3"
		},
		{
			"bufferView":1,
			"componentType":5126,
			"count":64680,
			"type":"VEC3"
		},
		{
			"bufferView":2,
			"componentType":5126,
			"count":64680,
			"type":"VEC2"
		},
		{
			"bufferView":3,
			"componentType":5123,
			"count":219912,
			"type":"SCALAR"
		},
		{
			"bufferView":4,
			"componentType":5126,
			"count":20580,
			"max":[
				0.7195003032684326,
				2.8492536544799805,
				0.812042772769928
			],
			"min":[
				-0.7944677472114563,
				-0.1595916897058487,
				-0.7970102429389954
			],
			"type":"VEC3"
		},
		{
			"bufferView":5,
			"componentType":5126,
			"count":20580,
			"type":"VEC3"
		},
		{
			"bufferView":6,
			"componentType":5126,
			"count":20580,
			"type":"VEC2"
		},
		{
			"bufferView":7,
			"componentType":5123,
			"count":69972,
			"type":"SCALAR"
		}
	],
	"bufferViews":[
		{
			"buffer":0,
			"byteLength":776160,
			"byteOffset":0,
			"target":34962
		},
		{
			"buffer":0,
			"byteLength":776160,
			"byteOffset":776160,
			"target":34962
		},
		{
			"buffer":0,
			"byteLength":517440,
			"byteOffset":1552320,
			"target":34962
		},
		{
			"buffer":0,
			"byteLength":439824,
			"byteOffset":2069760,
			"target":34963
		},
		{
			"buffer":0,
			"byteLength":246960,
			"byteOffset":2509584,
			"target":34962
		},
		{
			"buffer":0,
			"byteLength":246960,
			"byteOffset":2756544,
			"target":34962
		},
		{
			"buffer":0,
			"byteLength":164640,
			"byteOffset":3003504,
			"target":34962
		},
		{
			"buffer":0,
			"byteLength":139944,
			"byteOffset":3168144,
			"target":34963
		}
	],
	"buffers":[
		{
			"byteLength":3308088,
			"uri":"XmasTree.bin"
		}
	]
}
